<svg width="750" height="750" viewBox="0 0 750 750" fill="none" xmlns="http://www.w3.org/2000/svg">
<path d="M750 573.597H0V573.972H750V573.597Z" fill="#EBEBEB"/>
<path d="M674.851 597.741H625.168V598.116H674.851V597.741Z" fill="#EBEBEB"/>
<path d="M496.83 601.812H483.791V602.187H496.83V601.812Z" fill="#EBEBEB"/>
<path d="M623.667 583.812H594.879V584.187H623.667V583.812Z" fill="#EBEBEB"/>
<path d="M143.478 586.332H78.6885V586.707H143.478V586.332Z" fill="#EBEBEB"/>
<path d="M166.333 586.332H156.834V586.707H166.333V586.332Z" fill="#EBEBEB"/>
<path d="M337.72 592.667H197.206V593.042H337.72V592.667Z" fill="#EBEBEB"/>
<path d="M355.521 506.7H65.8725C61.152 506.7 57.3105 502.859 57.3105 498.138V90.99C57.3105 86.2695 61.152 82.428 65.8725 82.428H355.521C360.24 82.428 364.081 86.2695 364.081 90.99V498.138C364.081 502.859 360.24 506.7 355.521 506.7ZM65.8725 82.8045C61.3575 82.8045 57.6855 86.4765 57.6855 90.9915V498.139C57.6855 502.655 61.3575 506.327 65.8725 506.327H355.521C360.034 506.327 363.706 502.655 363.706 498.139V90.99C363.706 86.4765 360.034 82.803 355.521 82.803L65.8725 82.8045Z" fill="#EBEBEB"/>
<path d="M679.965 506.7H390.318C385.598 506.7 381.758 502.859 381.758 498.138V90.99C381.758 86.2695 385.599 82.428 390.318 82.428H679.965C684.687 82.428 688.527 86.2695 688.527 90.99V498.138C688.529 502.859 684.687 506.7 679.965 506.7ZM390.318 82.8045C385.805 82.8045 382.133 86.4765 382.133 90.9915V498.139C382.133 502.655 385.805 506.327 390.318 506.327H679.965C684.48 506.327 688.152 502.655 688.152 498.139V90.99C688.152 86.4765 684.48 82.803 679.965 82.803L390.318 82.8045Z" fill="#EBEBEB"/>
<path d="M661.323 148.763C665.807 129.774 654.048 110.744 635.058 106.26C616.068 101.776 597.039 113.536 592.555 132.525C588.071 151.515 599.83 170.545 618.82 175.029C637.81 179.513 656.839 167.753 661.323 148.763Z" fill="#E0E0E0"/>
<path d="M656.582 145.414C659.24 129.038 648.119 113.607 631.742 110.949C615.365 108.291 599.934 119.413 597.276 135.789C594.618 152.166 605.74 167.597 622.117 170.255C638.494 172.913 653.924 161.791 656.582 145.414Z" fill="#F0F0F0"/>
<path d="M625.5 120V141L611.583 133.125" fill="#F0F0F0"/>
<path d="M625.5 120V141L611.583 133.125" stroke="#E0E0E0" stroke-width="2" stroke-miterlimit="10" stroke-linecap="round" stroke-linejoin="round"/>
<path d="M195.992 163.596H93.0675V350.52H195.992V163.596Z" fill="#E6E6E6"/>
<path d="M189 171H100.5V343.5H189V171Z" fill="#F0F0F0"/>
<path d="M144.165 171L100.5 334.53V246L120.48 171H144.165Z" fill="#FAFAFA"/>
<path d="M163.68 171L117.63 343.5H108.945L154.995 171H163.68Z" fill="#FAFAFA"/>
<path d="M192.75 291.58H96V297.58H192.75V291.58Z" fill="#E6E6E6"/>
<path d="M636.384 406.095C636.384 406.095 638.75 390.499 627.375 380.499C616.001 370.498 617 364.551 620.25 363.774C623.501 362.999 626.501 372.999 631.5 375.748C631.5 375.748 631.658 361.498 626.579 356.248C621.5 350.998 618.834 337.475 623.667 337.236C628.5 336.998 629 345.269 630 351.134C631.001 356.999 636.384 365.248 636.384 365.248C636.384 365.248 637.435 352.498 640.717 347.248C643.999 341.998 635.25 329.998 638.625 324.748C642 319.498 648 329.499 647.5 340.749C647.001 351.999 639.501 363.999 641.25 375.748C641.25 375.748 644.559 367.498 647.529 366.748C650.499 365.998 653.499 360.542 655.5 358.52C657.5 356.498 660 363.498 655.5 369.997C651 376.497 639.5 393.886 641.25 407.941L636.384 406.095Z" fill="#E6E6E6"/>
<path d="M629.584 399L625.86 422.375C624.709 429.594 630.286 436.131 637.597 436.131H641.571C648.88 436.131 654.459 429.594 653.308 422.375L649.582 399H629.584Z" fill="#E6E6E6"/>
<path d="M645.051 438.814H636.384V574.98H645.051V438.814Z" fill="#E0E0E0"/>
<path d="M614.281 438.814H605.615V574.98H614.281V438.814Z" fill="#E6E6E6"/>
<path d="M675.821 438.814H667.154V574.98H675.821V438.814Z" fill="#E6E6E6"/>
<path d="M680.967 430.115H600.469V444.612H680.967V430.115Z" fill="#E6E6E6"/>
<path d="M375 641.341C535.623 641.341 665.833 633.737 665.833 624.357C665.833 614.977 535.623 607.372 375 607.372C214.377 607.372 84.1665 614.977 84.1665 624.357C84.1665 633.737 214.377 641.341 375 641.341Z" fill="#F5F5F5"/>
<path d="M525 566.281V400.5H508.5V566.281L498 569.506V574.5H535.5V569.506L525 566.281Z" fill="#2E353A"/>
<path d="M315 400.5H298.5V566.281L288 569.506V574.5H325.5V569.506L315 566.281V400.5Z" fill="#2E353A"/>
<g opacity="0.2">
<path d="M525 420H508.5V566.281L498 569.506V574.5H535.5V569.506L525 566.281V420Z" fill="white"/>
<path d="M315 420H298.5V566.281L288 569.506V574.5H325.5V569.506L315 566.281V420Z" fill="white"/>
</g>
<path d="M576 406.5V139.5L247.5 139.5L247.5 406.5L576 406.5Z" fill="#2E353A"/>
<path opacity="0.2" d="M576 406.5V139.5L247.5 139.5L247.5 406.5L576 406.5Z" fill="white"/>
<path d="M568.697 146.911H254.802V398.945H568.697V146.911Z" fill="#407BFF"/>
<path opacity="0.3" d="M568.697 146.911H254.802V398.945H568.697V146.911Z" fill="white"/>
<path d="M290.25 169.5V237.75H399.012L290.25 169.5Z" stroke="#263238" stroke-miterlimit="10"/>
<path d="M295.709 237.923V232.344H290.13" stroke="#263238" stroke-width="0.7933" stroke-miterlimit="10"/>
<path d="M346.358 189.007C346.031 189.007 345.714 188.929 345.406 188.774C345.102 188.615 344.889 188.382 344.768 188.074L344.978 187.922L344.816 188.912H344.054V181.772H344.911V185.161L344.73 185.028C344.889 184.771 345.116 184.561 345.411 184.4C345.706 184.235 346.022 184.152 346.358 184.152C346.793 184.152 347.167 184.266 347.481 184.495C347.796 184.72 348.037 185.018 348.205 185.39C348.376 185.758 348.462 186.154 348.462 186.58C348.462 187.033 348.368 187.444 348.181 187.812C347.994 188.177 347.742 188.468 347.424 188.683C347.107 188.899 346.752 189.007 346.358 189.007ZM346.253 188.246C346.526 188.246 346.763 188.171 346.963 188.022C347.163 187.87 347.316 187.668 347.424 187.417C347.532 187.164 347.586 186.884 347.586 186.58C347.586 186.262 347.532 185.978 347.424 185.728C347.316 185.477 347.163 185.279 346.963 185.133C346.763 184.987 346.526 184.914 346.253 184.914C346.009 184.914 345.781 184.976 345.568 185.099C345.359 185.22 345.189 185.404 345.059 185.651C344.929 185.896 344.864 186.205 344.864 186.58C344.864 186.97 344.929 187.287 345.059 187.532C345.189 187.776 345.359 187.957 345.568 188.074C345.781 188.188 346.009 188.246 346.253 188.246Z" fill="#263238"/>
<path d="M293.6 292.068C293.273 292.068 292.956 291.99 292.648 291.835C292.344 291.676 292.131 291.443 292.01 291.135L292.22 290.983L292.058 291.973H291.297V284.833H292.153V288.222L291.972 288.089C292.131 287.832 292.358 287.622 292.653 287.46C292.948 287.295 293.264 287.213 293.6 287.213C294.035 287.213 294.409 287.327 294.724 287.556C295.038 287.781 295.279 288.079 295.447 288.45C295.618 288.818 295.704 289.215 295.704 289.64C295.704 290.094 295.61 290.505 295.423 290.873C295.236 291.238 294.984 291.528 294.666 291.744C294.349 291.96 293.994 292.068 293.6 292.068ZM293.496 291.306C293.768 291.306 294.005 291.232 294.205 291.083C294.405 290.93 294.559 290.729 294.666 290.478C294.774 290.224 294.828 289.945 294.828 289.64C294.828 289.323 294.774 289.039 294.666 288.788C294.559 288.538 294.405 288.339 294.205 288.193C294.005 288.047 293.768 287.974 293.496 287.974C293.251 287.974 293.023 288.036 292.81 288.16C292.601 288.281 292.431 288.465 292.301 288.712C292.171 288.956 292.106 289.266 292.106 289.64C292.106 290.031 292.171 290.348 292.301 290.592C292.431 290.837 292.601 291.017 292.81 291.135C293.023 291.249 293.251 291.306 293.496 291.306Z" fill="#263238"/>
<path d="M331.232 246.494C330.705 246.494 330.263 246.387 329.904 246.175C329.549 245.959 329.279 245.67 329.095 245.308C328.914 244.943 328.824 244.539 328.824 244.095C328.824 243.631 328.911 243.214 329.085 242.843C329.263 242.472 329.534 242.178 329.899 241.962C330.264 241.746 330.731 241.639 331.299 241.639C331.543 241.639 331.773 241.664 331.989 241.715C332.208 241.762 332.403 241.829 332.574 241.915L332.441 242.667C332.267 242.584 332.081 242.519 331.884 242.472C331.691 242.424 331.489 242.4 331.28 242.4C330.766 242.4 330.374 242.546 330.104 242.838C329.834 243.13 329.699 243.536 329.699 244.057C329.699 244.564 329.828 244.972 330.085 245.28C330.342 245.588 330.734 245.742 331.261 245.742C331.476 245.742 331.683 245.716 331.879 245.665C332.079 245.615 332.27 245.545 332.451 245.456L332.565 246.141C332.438 246.23 332.252 246.311 332.008 246.384C331.764 246.457 331.505 246.494 331.232 246.494Z" fill="#263238"/>
<path d="M293.448 313.027C292.921 313.027 292.479 312.921 292.12 312.709C291.765 312.493 291.495 312.204 291.311 311.842C291.13 311.477 291.039 311.073 291.039 310.629C291.039 310.165 291.127 309.748 291.301 309.377C291.479 309.005 291.75 308.712 292.115 308.496C292.48 308.28 292.947 308.172 293.515 308.172C293.759 308.172 293.989 308.198 294.205 308.249C294.424 308.296 294.619 308.363 294.79 308.449L294.657 309.201C294.482 309.118 294.297 309.053 294.1 309.005C293.906 308.958 293.705 308.934 293.496 308.934C292.981 308.934 292.59 309.08 292.32 309.372C292.05 309.664 291.915 310.07 291.915 310.59C291.915 311.098 292.044 311.506 292.301 311.814C292.558 312.121 292.95 312.275 293.477 312.275C293.692 312.275 293.899 312.25 294.095 312.199C294.295 312.148 294.486 312.079 294.666 311.99L294.781 312.675C294.654 312.764 294.468 312.845 294.224 312.918C293.979 312.991 293.721 313.027 293.448 313.027Z" fill="#263238"/>
<path d="M279.824 205.26C279.535 205.26 279.283 205.201 279.067 205.084C278.851 204.966 278.683 204.806 278.562 204.603C278.445 204.4 278.386 204.168 278.386 203.908C278.386 203.644 278.443 203.419 278.558 203.232C278.675 203.042 278.83 202.885 279.024 202.761C279.221 202.634 279.44 202.534 279.681 202.461C279.922 202.385 280.171 202.331 280.428 202.299C280.688 202.264 280.937 202.245 281.175 202.242C281.175 201.798 281.088 201.507 280.914 201.371C280.739 201.234 280.487 201.166 280.157 201.166C279.982 201.166 279.795 201.193 279.595 201.247C279.398 201.301 279.176 201.414 278.929 201.585L278.805 200.89C278.992 200.747 279.226 200.632 279.505 200.543C279.784 200.451 280.078 200.405 280.385 200.405C280.779 200.405 281.096 200.474 281.337 200.614C281.578 200.751 281.755 200.982 281.866 201.309C281.977 201.636 282.032 202.08 282.032 202.642V203.594C282.032 203.816 282.042 204 282.061 204.146C282.083 204.289 282.131 204.397 282.204 204.47C282.28 204.539 282.4 204.574 282.565 204.574H282.651L282.518 205.26H282.451C282.175 205.26 281.961 205.233 281.809 205.179C281.659 205.125 281.545 205.047 281.466 204.946C281.387 204.844 281.315 204.72 281.252 204.574C281.077 204.777 280.871 204.942 280.633 205.069C280.395 205.196 280.125 205.26 279.824 205.26ZM279.986 204.574C280.214 204.574 280.435 204.517 280.647 204.403C280.863 204.289 281.039 204.136 281.175 203.946V202.832C280.722 202.848 280.354 202.892 280.071 202.965C279.792 203.038 279.587 203.148 279.457 203.294C279.327 203.44 279.262 203.629 279.262 203.86C279.262 204.111 279.329 204.293 279.462 204.408C279.598 204.519 279.773 204.574 279.986 204.574Z" fill="#263238"/>
<path d="M292.391 271.107C292.103 271.107 291.85 271.049 291.634 270.931C291.419 270.814 291.251 270.653 291.13 270.45C291.013 270.247 290.954 270.016 290.954 269.755C290.954 269.492 291.011 269.267 291.125 269.08C291.243 268.889 291.398 268.732 291.592 268.608C291.788 268.481 292.007 268.381 292.248 268.308C292.49 268.232 292.739 268.178 292.996 268.147C293.256 268.112 293.505 268.093 293.743 268.09C293.743 267.645 293.656 267.355 293.481 267.218C293.307 267.082 293.054 267.014 292.724 267.014C292.55 267.014 292.363 267.041 292.163 267.095C291.966 267.149 291.744 267.261 291.496 267.433L291.373 266.738C291.56 266.595 291.793 266.479 292.072 266.39C292.352 266.298 292.645 266.252 292.953 266.252C293.346 266.252 293.664 266.322 293.905 266.462C294.146 266.598 294.322 266.83 294.433 267.157C294.544 267.483 294.6 267.928 294.6 268.489V269.441C294.6 269.663 294.609 269.847 294.628 269.993C294.651 270.136 294.698 270.244 294.771 270.317C294.847 270.387 294.968 270.422 295.133 270.422H295.219L295.085 271.107H295.019C294.743 271.107 294.528 271.08 294.376 271.026C294.227 270.972 294.113 270.895 294.033 270.793C293.954 270.692 293.883 270.568 293.819 270.422C293.645 270.625 293.438 270.79 293.2 270.917C292.962 271.044 292.693 271.107 292.391 271.107ZM292.553 270.422C292.782 270.422 293.002 270.365 293.215 270.25C293.43 270.136 293.607 269.984 293.743 269.794V268.68C293.289 268.696 292.921 268.74 292.639 268.813C292.36 268.886 292.155 268.995 292.025 269.141C291.895 269.287 291.83 269.476 291.83 269.708C291.83 269.959 291.896 270.141 292.03 270.255C292.166 270.366 292.341 270.422 292.553 270.422Z" fill="#263238"/>
<path d="M424.5 170.25H484.5" stroke="#263238" stroke-miterlimit="10"/>
<path d="M424.5 182.25H457.5" stroke="#263238" stroke-miterlimit="10"/>
<path d="M424.5 191.25H471" stroke="#263238" stroke-miterlimit="10"/>
<path d="M424.5 201.75H463.5" stroke="#263238" stroke-miterlimit="10"/>
<path d="M424.5 213.75H483" stroke="#263238" stroke-miterlimit="10"/>
<path d="M424.5 224.25H481.5" stroke="#263238" stroke-miterlimit="10"/>
<path d="M424.5 234.75H463.5" stroke="#263238" stroke-miterlimit="10"/>
<path d="M492 326.25H532.5" stroke="#263238" stroke-miterlimit="10"/>
<path d="M492 338.25H514.5" stroke="#263238" stroke-miterlimit="10"/>
<path d="M492 347.25H523.5" stroke="#263238" stroke-miterlimit="10"/>
<path d="M492 357.75H519" stroke="#263238" stroke-miterlimit="10"/>
<path d="M286.5 345.75H327" stroke="#263238" stroke-miterlimit="10"/>
<path d="M286.5 357.75H309" stroke="#263238" stroke-miterlimit="10"/>
<path d="M286.5 366.75H318" stroke="#263238" stroke-miterlimit="10"/>
<path d="M286.5 377.25H313.5" stroke="#263238" stroke-miterlimit="10"/>
<path d="M504 191.25H543" stroke="#263238" stroke-miterlimit="10"/>
<path d="M504 201.75H543" stroke="#263238" stroke-miterlimit="10"/>
<path d="M504 212.25H531" stroke="#263238" stroke-miterlimit="10"/>
<path d="M388.5 345.75H427.5" stroke="#263238" stroke-miterlimit="10"/>
<path d="M388.5 356.25H427.5" stroke="#263238" stroke-miterlimit="10"/>
<path d="M388.5 366.75H415.5" stroke="#263238" stroke-miterlimit="10"/>
<path d="M315 276.75H402" stroke="#263238" stroke-miterlimit="10"/>
<path d="M315 296.25H402" stroke="#263238" stroke-miterlimit="10"/>
<path d="M315 315.75H402" stroke="#263238" stroke-miterlimit="10"/>
<path d="M459.699 326.336C474.814 326.336 487.068 314.082 487.068 298.967C487.068 283.851 474.814 271.598 459.699 271.598C444.584 271.598 432.33 283.851 432.33 298.967C432.33 314.082 444.584 326.336 459.699 326.336Z" stroke="#263238" stroke-width="0.7933" stroke-miterlimit="10"/>
<path d="M459.75 271.5V299.25H487.5" stroke="#263238" stroke-miterlimit="10"/>
<path opacity="0.6" d="M568.697 146.911H254.802V398.945H568.697V146.911Z" fill="white"/>
<path d="M450.398 282.923L427.233 269.459C427.233 269.459 422.138 269.973 416.178 268.945C410.219 267.918 408.887 267.857 409.607 263.135C410.327 258.413 409.325 252.11 411.108 251.442C412.892 250.775 425.52 256.115 427.707 259.721L451.088 268.086L450.398 282.923Z" fill="#B97964"/>
<path d="M519 260.055V287.07C519 287.07 513.24 288.975 506.085 290.97C497.88 293.25 487.845 295.65 482.625 295.395C472.875 294.915 439.875 277.785 439.875 277.785L445.875 266.355C445.875 266.355 481.875 278.625 486.375 277.74C490.875 276.855 519 260.055 519 260.055Z" fill="#407BFF"/>
<path opacity="0.2" d="M519 273.21V287.07C519 287.07 513.24 288.975 506.085 290.97C508.725 282.93 515.31 276.375 519 273.21Z" fill="black"/>
<path d="M525.059 356.159C525.059 356.159 508.802 442.806 504.464 478.38C498.797 524.789 475.623 592.683 475.623 592.683L484.889 595.079C484.889 595.079 517.56 537.386 523.929 485.472C549.881 432.419 551.976 367.088 551.976 367.088L525.059 356.159Z" fill="#B97964"/>
<path d="M458.37 613.685C459.87 612.995 461.483 612.585 463.131 612.476C463.131 612.476 468.828 609.122 474.474 596.096L480.824 596.058C483.023 596.084 484.97 597.479 485.702 599.552C485.805 599.834 485.867 600.131 485.882 600.431C485.817 601.965 485.655 603.494 485.394 605.007C484.823 609.756 481.682 619.946 481.682 619.946L480.606 619.671L482.562 610.197C483.213 606.978 479.831 610.088 478.262 613.334C476.693 616.58 474.287 619.847 467.274 618.243C459.102 616.332 455.808 615.155 458.37 613.685Z" fill="#2E353A"/>
<path d="M541.941 354.776C541.941 354.776 543.959 442.911 547.073 478.614C551.127 525.192 542.498 596.411 542.498 596.411L552.059 596.837C552.059 596.837 572.09 533.633 567.584 481.526C582 424.253 570.537 359.901 570.537 359.901L541.941 354.776Z" fill="#B97964"/>
<path d="M527.618 616.586C529.034 615.738 530.593 615.156 532.219 614.868C532.219 614.868 537.521 610.919 541.727 597.357L548.036 596.634C550.224 596.421 552.312 597.599 553.263 599.58C553.397 599.85 553.489 600.138 553.536 600.435C553.638 601.967 553.641 603.504 553.545 605.037C553.491 609.821 551.469 620.289 551.469 620.289L550.37 620.133L551.291 610.503C551.589 607.233 548.562 610.689 547.355 614.087C546.146 617.483 544.107 620.991 536.961 620.156C528.632 619.137 525.23 618.324 527.618 616.586Z" fill="#2E353A"/>
<path d="M574.239 204.872C574.239 204.872 579 205.128 582.999 212.939C587 220.751 581.999 229.427 581 233.588C579.999 237.749 575 241.419 583.25 247.709C591.5 253.998 596.439 260.667 589.749 267.468C583.059 274.269 590.414 279.5 580.707 284.499C571.001 289.5 535.5 282 531 272.25C526.5 262.5 531.93 255.096 532.215 252.173C532.5 249.251 526.5 246.281 525 236.765C523.5 227.249 531.18 225.197 532.215 220.848C533.25 216.5 528.431 210.999 532.215 201.749C536 192.498 573.729 190.493 574.239 204.872Z" fill="#2E353A"/>
<path d="M598.2 334.635C592.515 335.37 585.938 324.27 581.183 313.92C577.133 305.145 574.295 296.895 574.295 296.895L577.286 288.435L585.119 266.355C585.119 266.355 590.603 273.99 598.838 303.06C600.158 307.74 601.745 312.975 603.2 318.825C603.2 318.825 603.002 320.58 604.502 322.95V322.965C604.5 327.345 605.025 333.75 598.2 334.635Z" fill="#407BFF"/>
<path opacity="0.2" d="M581.085 313.92C577.035 305.145 574.245 296.895 574.245 296.895L577.26 288.435C579.345 294.285 582.42 304.89 581.085 313.92Z" fill="black"/>
<path opacity="0.2" d="M604.5 322.95V322.965C601.5 324.945 598.365 324.915 596.61 321.3C593.055 313.995 596.482 306.765 598.927 303.06C600.247 307.74 601.789 312.975 603.244 318.825C603.244 318.825 603 320.58 604.5 322.95Z" fill="black"/>
<path d="M515.004 331.751C515.004 331.751 544.935 342.501 573.593 340.5C573.593 340.5 570.999 305.097 555.999 298.799C541.001 292.5 515.009 301.5 515.004 331.751Z" fill="#407BFF"/>
<path opacity="0.2" d="M515.004 331.751C515.004 331.751 544.935 342.501 573.593 340.5C573.593 340.5 570.999 305.097 555.999 298.799C541.001 292.5 515.009 301.5 515.004 331.751Z" fill="black"/>
<path d="M519.255 334.275L568.77 338.55C569.55 326.25 570.33 316.86 574.035 302.19C575.22 297.45 576.705 292.155 578.61 286.035C579.63 282.765 580.755 279.255 582.015 275.475C582.96 272.61 583.98 269.565 585.105 266.355C578.37 264.21 571.515 262.545 564.555 261.39C557.22 260.085 549.78 259.305 542.325 259.05C532.695 258.975 521.625 260.055 521.625 260.055C521.625 260.055 520.05 260.43 519.06 270.645C518.16 280.23 517.275 299.4 519.255 334.275Z" fill="#407BFF"/>
<path d="M519.492 341.698L568.965 345.78C569.745 333.48 570.33 316.86 574.035 302.19C575.22 297.45 576.705 292.155 578.61 286.035C579.63 282.765 580.755 279.255 582.015 275.475C582.96 272.61 583.98 269.565 585.105 266.355C578.37 264.21 571.515 262.545 564.555 261.39C557.22 260.085 549.78 259.305 542.325 259.05C532.695 258.975 521.625 260.055 521.625 260.055C521.625 260.055 520.05 260.43 519.06 270.645C518.16 280.23 517.512 306.823 519.492 341.698Z" fill="#2E353A"/>
<path d="M546.411 269.984C558.614 268.422 562.28 263.21 562.28 263.21C554.538 255.905 560.97 243.247 560.97 243.247L546.282 245.99C546.668 248.417 546.833 250.452 546.857 252.173C546.968 261.087 542.937 261.174 542.937 261.174C540.359 266.003 546.411 269.984 546.411 269.984Z" fill="#B97964"/>
<path opacity="0.2" d="M546.282 245.99C546.667 248.417 546.833 250.452 546.857 252.173C556.778 252.173 560.97 243.247 560.97 243.247L546.282 245.99Z" fill="black"/>
<path d="M554.402 204.923C541.634 204.224 537.15 210.834 535.494 223.94C533.424 240.318 536.43 252.198 552.586 249.561C574.528 245.979 575.606 206.084 554.402 204.923Z" fill="#B97964"/>
<path d="M543.787 223.677C543.787 223.677 541.836 226.916 539.782 228.77C539.782 228.77 540.78 230.565 543.069 230.399L543.787 223.677Z" fill="#A24E3F"/>
<path d="M551.658 223.061C551.576 224.108 552.077 225.002 552.774 225.056C553.473 225.11 554.105 224.306 554.187 223.259C554.27 222.212 553.77 221.318 553.071 221.264C552.374 221.21 551.741 222.014 551.658 223.061Z" fill="#2E353A"/>
<path d="M553.359 221.337L551.151 220.265C551.151 220.265 552.135 222.27 553.359 221.337Z" fill="#2E353A"/>
<path d="M538.654 221.823C538.572 222.87 539.071 223.764 539.77 223.818C540.469 223.872 541.101 223.068 541.183 222.021C541.266 220.974 540.765 220.08 540.067 220.026C539.368 219.972 538.737 220.776 538.654 221.823Z" fill="#2E353A"/>
<path d="M540.355 220.1L538.147 219.029C538.147 219.029 539.131 221.034 540.355 220.1Z" fill="#2E353A"/>
<path d="M552.27 214.251C552.27 214.251 555.884 213.981 557.702 216.485" stroke="#2E353A" stroke-width="0.7247" stroke-miterlimit="10" stroke-linecap="round" stroke-linejoin="round"/>
<path d="M543.02 213.204C543.02 213.204 540.81 212.246 537.873 213.975" stroke="#2E353A" stroke-width="0.7247" stroke-miterlimit="10" stroke-linecap="round" stroke-linejoin="round"/>
<path d="M544.655 235.523C545.309 237.102 545.901 240.038 545.901 240.038C546.177 240.032 546.453 240.026 546.728 240.006C550.464 239.834 552.141 238.52 552.867 237.114C553.262 236.345 553.362 235.538 553.358 234.884C553.361 234.128 553.19 233.588 553.19 233.588C551.264 234.863 547.793 235.292 545.928 235.443C545.148 235.515 544.655 235.523 544.655 235.523Z" fill="#2E353A"/>
<path d="M545.928 235.443L546.33 236.765C549.849 236.594 552.304 236.001 553.357 234.884C553.36 234.128 553.189 233.588 553.189 233.588C551.263 234.864 547.791 235.292 545.928 235.443Z" fill="white"/>
<path d="M546.728 240.006C550.464 239.834 552.141 238.52 552.867 237.114C551.597 237.222 550.076 237.494 548.756 238.128C547.745 238.61 547.127 239.309 546.728 240.006Z" fill="#DE5753"/>
<path d="M567.177 227.205C567.177 227.205 561.782 216.389 563.13 208.34C563.13 208.34 538.397 196.617 535.74 222.23C535.74 222.23 534.518 199.292 556.493 199.986C578.433 200.679 576.615 232.784 564.758 241.73C564.758 241.73 570.51 233.967 567.177 227.205Z" fill="#2E353A"/>
<path d="M564.943 229.785C565.141 227.735 567.453 224.372 571.252 224.997C575.185 225.645 576.625 233.871 566.677 235.284C565.251 235.488 564.529 234.065 564.943 229.785Z" fill="#B97964"/>
<path d="M573.593 264.563C573.593 264.563 559.266 276.188 545.928 276C532.59 275.813 527.903 260.813 527.903 260.813C527.903 260.813 548.591 254.688 573.593 264.563Z" fill="#B97964"/>
<path d="M572.375 262.376C572.375 262.376 548.842 304.485 573.592 340.5C573.592 340.5 576.96 296.085 585.105 266.355L572.375 262.376Z" fill="#407BFF"/>
<path d="M529.215 259.046C529.215 259.046 529 288.86 524.749 299.93C520.5 311 515.004 331.749 515.004 331.749C515.004 331.749 510.874 282.11 519 260.054L529.215 259.046Z" fill="#407BFF"/>
<path d="M563.13 208.34C563.13 208.34 553.626 205.053 545.25 208.34C536.874 211.626 539.155 220.301 534.918 221.924" stroke="#2E353A" stroke-width="0.5" stroke-miterlimit="10" stroke-linecap="round" stroke-linejoin="round"/>
<path d="M638.625 253.673L634.688 251.427L620.25 255.375L600.687 250.312L596.25 265.125C596.25 265.125 595.313 281.625 596.25 281.812C597.188 282 618.563 283.125 618.563 283.125L629.438 276.188L638.625 253.673Z" fill="#E0E0E0"/>
<path d="M595.5 251.427L586.874 285.579L613.5 288.564L631.875 283.5L641.25 251.427L620.25 256.875L595.5 251.427Z" fill="#407BFF"/>
<path opacity="0.4" d="M620.25 256.875L613.5 288.57L586.875 285.585L595.5 251.43L620.25 256.875Z" fill="white"/>
<path opacity="0.2" d="M620.25 256.875L613.5 288.564L631.875 283.5L641.25 251.427L620.25 256.875Z" fill="white"/>
<path d="M596.875 319.5L609.25 295.736C609.25 295.736 608.5 290.669 609.25 284.669C610 278.669 610.001 277.334 614.751 277.835C619.502 278.334 625.75 277.043 626.5 278.793C627.25 280.544 622.5 293.406 619 295.758L611.727 319.5H596.875Z" fill="#B97964"/>
<path d="M592.874 332.556C600.75 339.25 609.75 333.5 614.751 314.25L599.252 312.251L592.874 332.556Z" fill="#407BFF"/>
<path d="M600.039 308.021L596.875 313.608L616.5 316.249V310.5L600.039 308.021Z" fill="#2E353A"/>
<path d="M439.076 279.23L444.51 282.65L448.061 263.169L442.317 262.902L439.076 279.23Z" fill="#2E353A"/>
<path d="M519.492 341.699L488.291 525.035C488.291 525.035 563.804 534.046 589.403 528.774C589.403 528.774 595.68 397.562 568.967 345.782L519.492 341.699Z" fill="#407BFF"/>
<path opacity="0.4" d="M519.492 341.699L488.291 525.035C488.291 525.035 563.804 534.046 589.403 528.774C589.403 528.774 595.68 397.562 568.967 345.782L519.492 341.699Z" fill="white"/>
<path d="M418.193 261.119C418.193 261.119 415.083 257.909 410.421 253.092C405.78 248.255 399.485 241.911 393.224 235.536C390.075 232.367 386.927 229.196 383.975 226.224C381.015 223.259 378.255 220.491 375.887 218.12C373.52 215.748 371.547 213.771 370.167 212.387C369.474 211.697 368.93 211.155 368.559 210.786C368.126 210.48 367.524 210.689 367.524 210.689L369.641 208.562C369.641 208.562 369.435 209.165 369.744 209.597C370.115 209.966 370.659 210.507 371.352 211.197C372.743 212.571 374.729 214.535 377.112 216.89C379.496 219.246 382.277 221.994 385.254 224.939C388.241 227.876 391.425 231.009 394.61 234.143C401.015 240.374 407.388 246.639 412.247 251.258C417.084 255.897 420.309 258.99 420.309 258.99L418.193 261.119Z" fill="#2E353A"/>
<path d="M475.623 592.682C475.623 592.682 467.696 609.273 463.13 612.474C463.13 612.474 469.25 616.124 475.623 608.001C483.864 597.497 485.88 600.43 485.88 600.43C485.88 600.43 485.531 596.835 484.889 595.076C483.65 591.687 475.623 592.682 475.623 592.682Z" fill="#B97964"/>
<path d="M543.469 592.547C543.469 592.547 541.219 598.688 538.219 605.438C535.219 612.188 532.219 614.868 532.219 614.868C532.219 614.868 537.43 616.56 540.243 613.293C543.055 610.026 547.866 598.226 553.262 599.582C553.262 599.582 552.867 598.173 552.059 596.837C551.25 595.5 543.469 592.547 543.469 592.547Z" fill="#B97964"/>
<path d="M291.786 621L293.004 434.629H280.812L282.03 621H291.786Z" fill="#407BFF"/>
<path opacity="0.5" d="M282.03 621H291.795L292.77 472.088L293.01 435H280.815L281.055 472.088L282.03 621Z" fill="white"/>
<path opacity="0.2" d="M293.01 435L292.77 472.5H281.055L280.815 435H293.01Z" fill="black"/>
<path d="M386.508 621L375.555 434.629H363.364L376.75 621H386.508Z" fill="#407BFF"/>
<path opacity="0.5" d="M376.748 621H386.511L376.215 446.047L375.555 435H363.36L364.17 446.047L376.748 621Z" fill="white"/>
<path opacity="0.2" d="M376.215 445.5H364.17L363.36 435H375.555L376.215 445.5Z" fill="black"/>
<path d="M197.066 621L210.452 434.629H198.261L187.31 621H197.066Z" fill="#407BFF"/>
<path opacity="0.3" d="M197.063 621L209.64 446.047L210.45 435H198.255L197.595 446.047L187.311 621H197.063Z" fill="white"/>
<path opacity="0.2" d="M198.255 435H210.45L209.64 445.5H197.595L198.255 435Z" fill="black"/>
<path d="M381.977 440.387H191.841C190.05 440.387 188.598 438.934 188.598 437.143V428.874H385.22V437.143C385.22 438.934 383.768 440.387 381.977 440.387Z" fill="#407BFF"/>
<path opacity="0.4" d="M381.977 440.387H191.841C190.05 440.387 188.598 438.934 188.598 437.143V428.874H385.22V437.143C385.22 438.934 383.768 440.387 381.977 440.387Z" fill="white"/>
<path opacity="0.2" d="M385.218 428.873H188.596V434.629H385.218V428.873Z" fill="black"/>
<path d="M390.915 430.374H182.901C181.11 430.374 179.658 428.922 179.658 427.131C179.658 425.34 181.11 423.888 182.901 423.888H390.915C392.706 423.888 394.158 425.34 394.158 427.131C394.158 428.922 392.706 430.374 390.915 430.374Z" fill="#407BFF"/>
<path opacity="0.4" d="M390.915 430.374H182.901C181.11 430.374 179.658 428.922 179.658 427.131C179.658 425.34 181.11 423.888 182.901 423.888H390.915C392.706 423.888 394.158 425.34 394.158 427.131C394.158 428.922 392.706 430.374 390.915 430.374Z" fill="white"/>
<path d="M294.75 402.375L281.625 426.615" stroke="#2E353A" stroke-width="2" stroke-miterlimit="10"/>
<path d="M175.688 370.418C175.688 370.418 187.551 349.312 189.495 345.188C191.438 341.062 196.687 312 196.687 312C196.687 312 195.75 309.187 195.75 307.687C195.75 306.187 196.687 299.25 196.687 299.25C196.687 299.25 196.687 298.687 200.437 297.562C204.187 296.437 208.312 294.937 208.687 296.625C209.062 298.312 208.125 309.937 207 311.062C205.875 312.187 204.596 314.062 204.596 314.062C204.596 314.062 201.438 345.063 200.001 349.624C198.562 354.187 186.75 378.588 186.75 378.588L175.688 370.418Z" fill="#E4897B"/>
<path d="M231.646 396.115C231.646 396.115 260.896 409.751 265.126 411.453C269.356 413.157 282.171 413.732 282.171 413.732C282.171 413.732 284.925 412.635 286.423 412.548C287.92 412.463 294.901 413 294.901 413C294.901 413 295.462 412.968 296.8 416.646C298.138 420.326 299.872 424.357 298.209 424.828C296.545 425.299 284.886 425.03 283.698 423.971C282.51 422.912 282.51 422.912 282.51 422.912C282.51 422.912 265.935 426.366 261.297 425.193C256.66 424.019 224.121 413.625 224.121 413.625L231.646 396.115Z" fill="#E4897B"/>
<path d="M191.505 374.145C190.83 378.72 188.265 384.105 185.01 388.68C178.68 397.635 169.755 403.53 167.34 394.275C163.665 380.295 179.25 362.745 179.25 362.745L191.505 374.145Z" fill="#407BFF"/>
<path opacity="0.2" d="M191.505 374.145C190.83 378.72 188.265 384.105 185.01 388.68C183.63 387.12 182.715 385.275 183 383.25C183.87 376.995 191.505 374.145 191.505 374.145Z" fill="black"/>
<path d="M222.9 363.66C222.045 366.81 220.29 369.51 217.95 371.625C214.53 374.745 209.88 376.575 205.125 376.665C200.67 376.74 196.125 375.3 192.405 371.94C185.52 365.73 185.73 358.59 184.905 346.44C184.08 334.305 197.28 325.05 210.645 329.895C224.01 334.74 225.9 352.755 222.9 363.66Z" fill="#E4897B"/>
<path d="M206.471 322.17C206.471 322.17 215.813 318.75 222.375 324.188C228.938 329.625 228.563 342.75 222.375 348.938C222.375 348.938 224.063 346.688 219.188 341.25C214.313 335.813 206.471 322.17 206.471 322.17Z" fill="#2E353A"/>
<path opacity="0.2" d="M217.95 371.625C214.53 374.745 209.88 376.575 205.125 376.665C207.03 372.855 209.25 371.625 209.25 371.625C212.07 373.065 215.565 372.39 217.95 371.625Z" fill="black"/>
<path d="M220.35 570.375L218.76 580.32L217.305 589.5H204L205.155 577.755L206.25 566.505L220.35 570.375Z" fill="#E4897B"/>
<path d="M216.549 584.288L203.049 583.446C202.579 583.395 202.158 583.736 202.107 584.205C202.107 584.21 202.105 584.214 202.105 584.219L200.781 594.869C200.709 596.033 201.585 597.039 202.749 597.125C207.463 597.342 209.725 597.21 215.67 597.534C219.316 597.752 226.503 598.527 231.534 598.04C236.566 597.552 235.948 592.592 233.776 592.355C228.624 591.768 221.799 587.982 218.574 585.108C218.01 584.619 217.296 584.33 216.549 584.288Z" fill="#2E353A"/>
<path d="M220.689 586.602C219.608 586.509 218.54 586.296 217.505 585.969C217.397 585.945 217.316 585.855 217.305 585.745C217.295 585.636 217.343 585.529 217.431 585.463C217.832 585.219 221.387 583.11 222.828 583.771C223.158 583.929 223.383 584.246 223.427 584.609C223.59 585.165 223.418 585.765 222.986 586.152C222.303 586.582 221.484 586.743 220.689 586.602ZM222.59 584.332C221.822 583.975 219.759 584.859 218.307 585.658C220.431 586.216 222.015 586.246 222.618 585.729C222.873 585.469 222.972 585.094 222.881 584.743C222.863 584.565 222.752 584.409 222.59 584.332Z" fill="#407BFF"/>
<path d="M217.564 585.978C217.527 585.996 217.485 586.001 217.444 585.989C217.366 585.938 217.315 585.854 217.305 585.759C217.311 585.653 217.254 582.135 218.53 581.034C218.872 580.755 219.319 580.64 219.753 580.719C220.245 580.766 220.644 581.142 220.719 581.631C220.906 582.956 218.958 585.363 217.718 585.996C217.667 586.013 217.611 586.007 217.564 585.978ZM219.516 581.297C219.289 581.28 219.067 581.36 218.902 581.514C218.13 582.167 217.921 584.142 217.881 585.275C218.971 584.46 220.231 582.636 220.156 581.754C220.143 581.589 220.05 581.387 219.652 581.315L219.516 581.297Z" fill="#407BFF"/>
<path opacity="0.2" d="M220.35 570.375L218.76 580.32L205.155 577.755L206.25 566.505L220.35 570.375Z" fill="black"/>
<path d="M236.501 494.824C230.337 486.696 214.394 482.567 201.563 480.507L197.247 512.684C205.155 514.313 208.437 518.695 208.875 520.5C210.965 529.116 201 574 201 574L221.717 579C221.717 579 247.5 509.331 236.501 494.824Z" fill="#2E353A"/>
<path opacity="0.2" d="M236.501 494.824C230.337 486.696 214.394 482.567 201.563 480.507L197.247 512.684C205.155 514.313 208.437 518.695 208.875 520.5C210.965 529.116 201 574 201 574L221.717 579C221.717 579 247.5 509.331 236.501 494.824Z" fill="black"/>
<path d="M257.85 570.375L256.26 580.32L254.805 589.5H241.5L242.655 577.755L243.75 566.505L257.85 570.375Z" fill="#E4897B"/>
<path d="M254.049 584.288L240.549 583.446C240.079 583.395 239.658 583.736 239.607 584.205C239.607 584.21 239.605 584.214 239.605 584.219L238.281 594.869C238.209 596.033 239.085 597.039 240.249 597.125C244.963 597.342 247.225 597.21 253.17 597.534C256.816 597.752 264.003 598.527 269.034 598.04C274.066 597.552 273.448 592.592 271.276 592.355C266.124 591.768 259.299 587.982 256.074 585.108C255.51 584.619 254.796 584.33 254.049 584.288Z" fill="#2E353A"/>
<path d="M258.189 586.602C257.108 586.509 256.04 586.296 255.005 585.969C254.897 585.945 254.816 585.855 254.805 585.745C254.795 585.636 254.843 585.529 254.931 585.463C255.332 585.219 258.887 583.11 260.328 583.771C260.658 583.929 260.883 584.246 260.927 584.609C261.09 585.165 260.918 585.765 260.486 586.152C259.803 586.582 258.984 586.743 258.189 586.602ZM260.09 584.332C259.322 583.975 257.259 584.859 255.807 585.658C257.931 586.216 259.515 586.246 260.118 585.729C260.373 585.469 260.472 585.094 260.381 584.743C260.363 584.565 260.252 584.409 260.09 584.332Z" fill="#407BFF"/>
<path d="M255.064 585.978C255.027 585.996 254.985 586.001 254.944 585.989C254.866 585.938 254.815 585.854 254.805 585.759C254.811 585.653 254.754 582.135 256.03 581.034C256.372 580.755 256.819 580.64 257.253 580.719C257.745 580.766 258.144 581.142 258.219 581.631C258.406 582.956 256.458 585.363 255.218 585.996C255.167 586.013 255.111 586.007 255.064 585.978ZM257.016 581.297C256.789 581.28 256.567 581.36 256.402 581.514C255.63 582.167 255.421 584.142 255.381 585.275C256.471 584.46 257.731 582.636 257.656 581.754C257.643 581.589 257.55 581.387 257.152 581.315L257.016 581.297Z" fill="#407BFF"/>
<path opacity="0.2" d="M257.85 570.375L256.26 580.32L242.655 577.755L243.75 566.505L257.85 570.375Z" fill="black"/>
<path d="M192.683 369.942C192.683 377.078 191.853 383.868 187.455 387.042C193.53 392.232 200.318 396.525 207.611 399.787C215.421 394.264 211.809 389.691 211.809 389.691C204.986 385.943 207.113 377.209 209.25 371.623C209.25 371.623 207.572 368.91 198 368.874C193.751 368.859 192.683 369.942 192.683 369.942Z" fill="#E4897B"/>
<path d="M155.865 472.779C155.865 472.779 141.911 512.235 181.455 512.235C221 512.235 224.19 496.818 220.845 478.659L155.865 472.779Z" fill="#2E353A"/>
<path d="M220.845 478.547C220.845 478.547 262.999 480.316 274.001 494.824C285 509.331 259.216 579 259.216 579L238.5 574C238.5 574 249.885 526.464 245.598 520.322C241.311 514.179 217.99 513.787 186.495 512.143C154.999 510.499 220.845 478.547 220.845 478.547Z" fill="#2E353A"/>
<path d="M183.562 385.875L187.455 376.656C187.455 376.656 209.88 377.463 216.69 387.67C223.5 397.875 183.562 385.875 183.562 385.875Z" fill="#407BFF"/>
<path d="M229.305 399.909C229.98 411.444 229.305 435.144 220.845 478.659L155.865 472.779C156.285 463.584 170.043 432.081 167.118 390.591C166.674 384.419 171.319 379.056 177.492 378.612C177.619 378.603 177.747 378.595 177.873 378.591C181.068 378.471 200.551 384.224 209.7 385.599C213.225 386.244 216.645 387.099 219.555 387.924C225.027 389.433 228.94 394.245 229.305 399.909Z" fill="#407BFF"/>
<path opacity="0.2" d="M229.305 399.909C229.98 411.444 229.305 435.144 220.845 478.659L155.865 472.779C156.285 463.584 170.043 432.081 167.118 390.591C166.674 384.419 171.319 379.056 177.492 378.612C177.619 378.603 177.747 378.595 177.873 378.591C181.068 378.471 200.551 384.224 209.7 385.599C213.225 386.244 216.645 387.099 219.555 387.924C225.027 389.433 228.94 394.245 229.305 399.909Z" fill="black"/>
<path d="M219.555 387.924C212.414 386.377 211.628 407.25 216.815 413.25C222.002 419.25 249.677 423.75 249.677 423.75L254.807 405C254.807 405 232.047 390.628 219.555 387.924Z" fill="#407BFF"/>
<path d="M189.885 369.213C189.885 369.213 180.75 366.704 176.5 347.102C172.251 327.5 190.941 318.75 212.095 322.999C233.25 327.249 222.919 357.551 204.501 369.212C204.501 369.212 198.27 371.925 189.885 369.213Z" fill="#2E353A"/>
<path d="M212.985 353.289C213.494 355.719 214.91 357.865 216.945 359.289C219.54 360.999 221.55 358.389 221.445 355.029C221.325 352.029 219.84 347.454 216.945 347.124C214.05 346.794 212.28 350.109 212.985 353.289Z" fill="#E4897B"/>
<path d="M275.619 428.873V435.256C275.619 438.088 277.916 440.385 280.748 440.385H383.466C385.257 440.385 386.709 438.933 386.709 437.142V428.871H275.619V428.873Z" fill="#407BFF"/>
<path opacity="0.6" d="M275.619 428.873V435.256C275.619 438.088 277.916 440.385 280.748 440.385H383.466C385.257 440.385 386.709 438.933 386.709 437.142V428.871H275.619V428.873Z" fill="white"/>
<path opacity="0.2" d="M386.709 428.873H275.619V434.629H386.709V428.873Z" fill="black"/>
<path d="M392.22 423.888H272.859C271.068 423.888 269.616 425.34 269.616 427.131C269.616 428.922 271.068 430.374 272.859 430.374H392.406C394.308 430.374 395.826 428.738 395.633 426.797C395.463 425.108 393.917 423.888 392.22 423.888Z" fill="#407BFF"/>
<path opacity="0.6" d="M392.22 423.888H272.859C271.068 423.888 269.616 425.34 269.616 427.131C269.616 428.922 271.068 430.374 272.859 430.374H392.406C394.308 430.374 395.826 428.738 395.633 426.797C395.463 425.108 393.917 423.888 392.22 423.888Z" fill="white"/>
<path d="M187.82 621H197.189L199.02 542.355L199.56 519H185.46L186 542.355L187.82 621Z" fill="#407BFF"/>
<path opacity="0.4" d="M187.82 621H197.189L199.02 542.355L199.56 519H185.46L186 542.355L187.82 621Z" fill="white"/>
<path opacity="0.2" d="M199.56 519L199.02 543H186L185.46 519H199.56Z" fill="black"/>
<path d="M242.057 621L236.132 520.65H223.877L232.172 621H242.057Z" fill="#407BFF"/>
<path opacity="0.5" d="M232.156 621H242.047L236.811 532.05L236.136 520.5H223.881L224.826 532.05L232.156 621Z" fill="white"/>
<path opacity="0.2" d="M223.881 520.5L224.826 532.5H236.811L236.136 520.5H223.881Z" fill="black"/>
<path d="M152.843 621L161.136 520.65H148.881L142.958 621H152.843Z" fill="#407BFF"/>
<path opacity="0.5" d="M152.858 621L160.187 532.05L161.132 520.5H148.877L148.202 532.05L142.967 621H152.858Z" fill="white"/>
<path opacity="0.2" d="M161.132 520.5L160.187 532.5H148.202L148.877 520.5H161.132Z" fill="black"/>
<path d="M235.197 507.5H149.815C145.674 507.5 142.315 510.858 142.315 515V525.033H242.697V515C242.697 510.858 239.339 507.5 235.197 507.5Z" fill="#407BFF"/>
<path d="M181.699 411.02L174.268 412.038L188.99 519.527L196.421 518.509L181.699 411.02Z" fill="#407BFF"/>
<path d="M135.197 411.021L127.766 412.039L142.488 519.528L149.919 518.511L135.197 411.021Z" fill="#407BFF"/>
<g opacity="0.4">
<path d="M181.699 411.02L174.268 412.038L188.99 519.527L196.421 518.509L181.699 411.02Z" fill="white"/>
</g>
<g opacity="0.4">
<path d="M135.197 411.021L127.766 412.039L142.488 519.528L149.919 518.511L135.197 411.021Z" fill="white"/>
</g>
<path d="M244.489 516.267H140.523C138.856 516.267 137.506 517.617 137.506 519.283V522.016C137.506 523.683 138.858 525.033 140.523 525.033H244.489C246.156 525.033 247.506 523.681 247.506 522.016V519.283C247.506 517.617 246.156 516.267 244.489 516.267Z" fill="#407BFF"/>
<path opacity="0.6" d="M244.489 516.267H140.523C138.856 516.267 137.506 517.617 137.506 519.283V522.016C137.506 523.683 138.858 525.033 140.523 525.033H244.489C246.156 525.033 247.506 523.681 247.506 522.016V519.283C247.506 517.617 246.156 516.267 244.489 516.267Z" fill="white"/>
<path d="M192.073 447.434H125.334L120 405.797H186.741L192.073 447.434Z" fill="#407BFF"/>
<path opacity="0.6" d="M192.073 447.434H125.334L120 405.797H186.741L192.073 447.434Z" fill="white"/>
</svg>
